<svg xmlns="http://www.w3.org/2000/svg" xmlns:xlink="http://www.w3.org/1999/xlink" id="Layer_2" x="0px" y="0px" viewBox="0 0 500 500" style="enable-background:new 0 0 500 500;" xml:space="preserve"><style type="text/css">	.st0{fill:#DCAE3B;}</style><g>	<path class="st0" d="M241.8,9c1.8,1.1,2.3,3,2.2,4.8c-0.6,10.8,1.3,21.5,0.9,32.2c-0.2,6.6,0.4,13.2,0.6,19.7  c0.2,4.9,0,9.9,0.3,14.8c0.4,5.1,1,10.1,0.9,15.2c-0.1,4.7-1.5,6.5-6.2,6.5c-13.6,0-26.6,3.3-39.4,7.3c-4.5,1.4-5.8,0.9-7.5-3.5  C187,88.5,180.2,71,173.5,53.4c-1.4-3.6-0.8-4.7,2.9-6.3c9.8-4,20.2-6.2,30.5-8.4c1-0.2,2.1-0.3,3.1-0.5c5-1.1,6.8,0,7.1,5.1  c0.5,8.3,2.7,16.3,3.9,24.5c0.4,2.5,1.2,4.9,1.1,7.5c-0.1,1.1-0.4,1.9-1.5,2.2c-3,0.8-6,1.7-9.1,1.9c-2.1,0.1-2.9-0.9-3.4-2.7  c-1.3-5.8-2.7-11.5-4-17.3c-0.9-3.9-1.7-4.3-5.5-3.2c-0.8,0.2-1.6,0.4-2.4,0.6c-3.3,0.6-4.1,1.8-3.2,4.9c2.2,7.2,4.4,14.4,6.6,21.6  c0.7,2.4,1.5,4.8,2.3,7.2c0.6,1.8,1.6,2.6,3.7,2c6.5-1.8,13.1-3.2,19.7-4.2c0.8-0.1,1.7,0,2.5-0.1c5.2-0.7,5.4-1.5,5-6.1  c-0.4-4.7-0.9-9.5-1.3-14.2c-0.5-5.4-1.3-10.8-1.7-16.1c-0.3-3.3-0.7-6.5-1-9.8c-0.5-5-0.9-10.1-1.4-15.1c-0.1-1.4-1.1-1.8-2.4-1.8  c-3.4-0.1-6.8,0.5-10.2,1c-8.5,1.3-16.9,3-25.1,5.3c-10.2,2.7-20,6.3-29.9,10c-0.8,0.3-1.6,0.8-2.3,1.3c-1,0.8-1.5,1.7-0.9,3.1  c3.1,6.6,6.2,13.2,9.2,19.8c6,13.1,12,26.2,18.1,39.2c2.2,4.9,4.5,9.7,6.8,14.5c1.1,2.4,0.9,2.4-1.3,3.7  c-5.5,3.3-11.2,6.1-16.7,9.3c-1.6,0.9-3.3,1.8-4.8,2.8c-1,0.6-1.7,0.3-2.3-0.5c-1.5-1.9-3.2-3.7-4.5-5.8  c-3.3-5.5-7.7-10.3-11.5-15.5c-5.5-7.5-10.7-15.1-16.2-22.6c-5.7-7.8-11.5-15.5-17.6-22.9c-1.3-1.6-2.5-1.3-4-0.2  c-12.1,8.6-23,18.5-33.2,29.2c-4.7,4.9-9.4,10-13.2,15.7c-0.8,1.2-2,2-2.6,3.3c-0.8,1.5-0.5,2.5,0.5,3.6c1.9,2,4.4,3,6.4,4.7  c5,4.1,10.6,7.2,15.6,11.3c4.3,3.5,9.2,6.4,13.8,9.4c3.3,2.2,6.1,5,9.5,6.9c4.3,2.3,6.2,3.1,10-1.6c4.1-5,8.1-10.1,13.1-14.3  c0.9-0.8,1.6-1.7,2.3-2.7c1.2-1.6,1-3-0.5-4c-2.3-1.5-3.6-3.8-5.4-5.7c-3.9-4.1-8-8.1-12-12.2c-1.4-1.5-2.7-3-3.8-4.6  c-1.8-2.6-4-2.8-6.2-0.5c-1.6,1.7-3.4,3.1-4.7,5.1c-0.7,1-0.8,1.7-0.1,2.8c1.1,1.5,2.2,2.8,3.8,3.8c1.2,0.8,2.4,1.6,3.2,2.7  c1.8,2.4,5.2,2.5,7,5.1c0.9,1.3,2.1,2.3,3,3.6c1,1.3,0.6,2.8-0.4,3.9c-1.5,1.8-3.2,3.6-4.8,5.3c-1.4,1.5-2.8,1.8-4.5,0.4  c-4.5-3.6-9-7.2-13.5-10.9c-3.9-3.1-7.9-6.3-11.8-9.4c-0.5-0.4-0.9-0.7-1.4-1.1c-3-2.9-2.9-3.3-0.1-6.3c2.6-2.8,5.1-5.8,7.5-8.8  c3-3.9,7.4-6,11.2-8.9c2.5-1.9,4.4-4.4,7-6.2c2.8-1.9,4.8-2.1,6.4,0.7c2.7,4.7,6.8,8,10.1,12.2c1.8,2.3,3.7,4.7,5.5,7  c2.4,3.1,4.8,6.2,7.5,9c5.2,5.6,9.8,11.6,14.6,17.4c0.9,1.1,0.7,1.9-0.3,2.7c-2.5,2.2-4.9,4.6-7.6,6.6c-2.4,1.7-4,4.2-6.1,6.2  c-4.8,4.8-8.9,10.2-13.2,15.4c-1,1.3-1.7,2.8-2.6,4.2c-1.4,2.4-3.3,2.7-5.8,1.5c-12.7-6.1-24.2-14.3-36.3-21.4  c-10.2-6-20.1-12.3-30.1-18.5c-2.3-1.4-4.6-2.7-6.8-4.2c-2.3-1.6-2.6-2.7-1.1-5c2.1-3.3,4-6.6,7-9.4c3-2.9,5.2-6.7,8-9.8  c2.8-3.1,5.3-6.4,8-9.6c4.5-5.3,9.5-10.3,14.6-15c4.4-4,8.4-8.5,13.5-11.7c2.5-1.6,4.4-3.5,6.3-5.8c3.5-4.2,8.6-6.5,13-9.7  c1.5-1.2,3.2-2.1,4.9-3.1c2.7-1.6,4.5-1.3,6.2,1.3c3.5,5.5,7.1,11,10.5,16.5c5.1,8.1,10.3,16.3,15.4,24.5c6,9.6,12,19.2,18,28.8  c2.1,3.4,4.2,3.7,7.1,1.6c1.5-1.1,1.9-2.4,1-4.1c-3.6-6.7-7.2-13.5-10.8-20.2c-2-3.7-4.1-7.4-6.1-11.1c-5.1-9.3-10.3-18.6-15-28.1  c-2.3-4.7-5-9.2-7.7-13.7c-1.9-3.3-1.3-5.5,2.4-7.3c5.5-2.7,11.2-5.2,16.8-7.6c12.7-5.2,25.7-9.4,39.1-12.4c7.3-1.7,14.6-3,22-3.9  c5.7-0.8,11.5-1.6,17.3-1.8c0.2,0,0.3-0.3,0.5-0.4C236.4,9,239.1,9,241.8,9z"></path>	<path class="st0" d="M268.4,9c1.8,1.1,3.9,0.6,5.8,0.8c13.6,1.1,27,3.4,40.2,6.9c11.7,3.1,23.1,6.9,34.2,11.7  c5.3,2.3,10.4,4.8,15.5,7.3c3.8,1.9,4.3,3.2,2.1,6.8c-7.1,11.8-13,24.3-19.9,36.3c-5.8,10.2-11.3,20.5-17,30.8  c-1,1.8-2.1,3.6-3.1,5.4c-1.2,2-0.8,3.5,1.4,4.4c0.3,0.1,0.6,0.2,0.8,0.4c3.2,2.1,4.1,2.2,5.7-1.1c2.3-4.8,6.3-8.2,9.1-12.6  c6.7-10.9,13.8-21.6,20.7-32.4c4.5-7,9-14.1,13.5-21.1c1-1.6,2.1-3,3.2-4.5c0.9-1.2,1.8-1.4,3.2-0.5c8.6,5.5,16.9,11.3,24.7,17.8  c8.2,6.7,16.3,13.6,23.4,21.5c2.5,2.9,5.5,5.2,8.3,7.8c3.5,3.2,6.1,7.3,8.9,11.1c3.5,4.7,7,9.3,10.3,14.2c1.8,2.8,1.9,4.8-1.4,6.8  c-16,9.5-31.7,19.4-47.7,28.9c-8.3,5-16.5,10.2-24.7,15.4c-2.6,1.6-3.6,1.7-5.5-0.8c-3.3-4.1-6.4-8.4-9.5-12.6  c-1-1.4-2.1-2.7-3.6-3.6c-1.1-0.7-1.9-1.8-2.4-2.9c-2.5-5.3-7.2-8.7-11.4-12.4c-0.3-0.3-0.7-0.5-1-0.9c-3.3-3.1-3.2-3.8-0.1-7.2  c2.7-3.1,5.2-6.5,8-9.4c3.7-3.7,6.5-8.1,9.8-12c6.3-7.4,12.9-14.6,18.8-22.3c1.2-1.5,2.5-1.8,4.3-0.6c2.6,1.9,4.7,4.3,7.3,6.2  c6.6,5,11.8,11.5,17.4,17.6c4.2,4.6,2.4,5.9-1.3,8.9c-4.2,3.4-8.1,7.1-12.9,9.8c-3,1.7-4.9,5-7.9,6.8c-0.8,0.4-1.5,0.9-2.3,1.3  c-2,0.9-3.6,0.7-5.4-1.1c-4.4-4.4-5.1-5.5,0.2-10.2c3.8-3.3,7.3-7,11.3-10.1c2.5-2,2.4-4.1-0.2-5.9c-1.2-0.8-2.3-1.6-3.4-2.5  c-2.5-2-3.9-1.7-6.4,0.3c-3.3,2.7-5.9,6.1-8.7,9.2c-3.4,3.7-7.1,7.1-10.6,10.7c-0.4,0.4-0.9,0.8-1.3,1.3c-2.2,2.3-2.2,3.7,0,6  c4.6,4.7,9.6,9,13.2,14.6c1.2,1.9,2.8,3.2,4.3,4.7c1.4,1.3,2.9,0.7,4.2-0.3c7.5-5.2,14.9-10.5,22.4-15.6  c7.8-5.4,15.7-10.7,23.2-16.4c4.8-3.7,4.7-3.5,0.7-8.7c-7.4-9.5-15.7-18-24.2-26.4c-5.2-5.1-10.9-9.7-16.6-14.2  c-2-1.6-3.4-3.7-5.9-4.7c-2.5-1-3.7-1-5.3,1.3c-2.8,3.8-5.8,7.5-8.5,11.4c-6.6,9.6-13.4,19-20.5,28.2c-6.2,8-11.9,16.5-18,24.6  c-1.3,1.7-2.6,1.4-3.8,0.7c-6.6-4.2-13.7-7.4-20.7-11c-3.2-1.6-3.1-1.6-1.6-4.8c6.2-13.3,12.3-26.7,18.4-40  c2.9-6.2,5.7-12.4,8.6-18.6c1.9-4,3.8-8,5.8-12.1c1.3-2.7,0.9-4.2-1.9-5.3c-4-1.6-8-3.1-12-4.6c-11.6-4.4-23.6-7.3-35.7-9.7  c-4.6-0.9-9.3-1.9-14.1-2c-0.4,0-0.9-0.1-1.3-0.2c-2.9-0.7-5.1,0.7-5.4,3.6c-0.4,4-0.7,8-0.9,12c-0.4,5.8-1.2,11.7-1.7,17.5  c-0.5,6.8-2.2,13.5-2,20.4c0.1,1.9-0.1,3.9-0.6,5.8c-0.4,1.5,0.3,2,1.3,2.6c1.3,0.6,2.7,0.8,4.1,0.9c7.1,0.5,14,2.1,20.9,4.1  c2.7,0.8,4.1,0.2,4.8-2.6c2.5-9.4,5.7-18.5,8.7-27.7c1.2-3.7,0.1-4.5-3.2-5.3c-7.8-1.9-6.5-0.3-8.5,5.5c-1.4,4.2-2.4,8.6-3.1,12.9  c-0.9,4.8-2.2,4.3-6.3,4c-1.5-0.1-3-0.5-4.5-1.1c-2.8-1.1-3.8-2.3-3.3-5.2c1.4-8.2,2.9-16.3,4.3-24.4c0.4-2.1,0.6-4.2,1-6.4  c0.8-3.9,1.8-5,5.5-4.2c11.6,2.5,23.3,4.7,34.4,9.3c0.5,0.2,1.1,0.3,1.7,0.5c1.7,0.6,2.6,1.7,2,3.4c-1.9,5-3.3,10.2-6.1,14.8  c-0.6,1-0.3,2-0.6,3c-1.4,4.2-3.5,8.1-4.9,12.3c-2.9,8.4-6.2,16.6-9.3,25c-1.3,3.6-3.2,4.5-6.9,3.3c-8.2-2.7-16.6-4.9-25.1-6.2  c-5.3-0.8-10.7-1.3-16.1-1.8c-3.5-0.3-4-0.8-4-4.3c0-3.9-0.3-7.8,0.1-11.7c0.6-7,0-13.9,0.5-20.9c0.3-4-0.2-8,0.4-11.9  c1.7-10,0.2-20,0.9-29.9c0.3-3.8,0.3-7.7,1.2-11.5c0.2-0.8,0.6-1.5,1-2.2C262.4,9,265.4,9,268.4,9z"></path>	<path class="st0" d="M233.2,123c-1.5,0-2.8,0.1-4,0c-4.8-0.7-7.4,2.5-9.9,5.7c-0.8,1-0.3,2,0.3,2.9c0.5,0.8,1.5,0.6,2.3,0.3  c1.9-0.9,3.7-1.8,5.5-3c7.1-4.7,15.4,0.5,17.1,7.4c0.7,2.8,0.7,5.6,0.2,8.4c-0.3,1.7-0.1,3.4-0.1,5.2c0,0.8,0.4,1.4,1.6,1.2  c1.5-0.2,3,0,4.5-0.1c1.1,0,2,0.2,2.4,1.3c0.4,1.1,0,2-1,2.8c-2.3,1.7-4.7,3.1-7.4,4c-5.2,1.9-10.5,3.7-15.7,5.6  c-3.9,1.4-6.8,4.4-9.1,7.6c-3.6,4.9-3.4,5,0,10.1c2.4,3.6,6.1,5.6,9.3,8.3c2.8,2.3,5.8,4.4,8.7,6.5c0.4,0.3,1.1,0.9,1.6,0.5  c0.7-0.6,0-1.3-0.3-1.8c-1.9-3.7-5-6.5-7.9-9.4c-1.2-1.2-2.2-2.6-2.9-4.2c-1.8-3.9-0.7-6.2,2.3-8.8c1.3-1.2,2.8-1.3,4.1,0.3  c0.5,0.6,1.1,1.1,2.1,1.2c5.7,0.2,9.9,3.4,13.2,7.7c1.8,2.3,3.3,4.9,5,7.3c2,2.8,5.5,4.3,8,3.5c3.3-1.1,4.2-3,2.1-6.6  c-2.6-4.4-5.4-8.9-9.9-11.9c-3.5-2.4-7.3-3.1-11.5-2.8c-0.5,0-1,0-1.7-0.1c0.2-1.5,1.3-2.2,2.5-2.5c5-1.4,9.6-3.4,13.9-6.3  c3.9-2.6,3.9-7.7,0.1-10.3c-0.4-0.3-0.9-0.5-1.3-0.9c-0.6-0.5-0.5-1.2-0.3-1.9c0.2-0.7,0.8-0.5,1.3-0.5c2.8,0.1,7.7,4.2,8.4,6.9  c0.3,1.1-0.3,2-0.6,3c-0.4,1.1-0.9,2.2-1.4,3.3c-1.1,2.5-0.5,3.9,2.1,4.8c2.6,0.9,5.2,1.6,7.9,2.3c5.1,1.3,9.6,3.8,13.8,7.1  c4.1,3.2,4.6,7.8,3.8,12.6c-0.4,2.9,0,4.5,1.9,5.3c2,0.8,4.8-0.4,6.1-2.4c2.8-4.4,4.1-9,1.8-13.9c-1.8-3.9-5-6.7-8.5-9.3  c-5.3-3.9-11.4-6.3-17.3-9c-0.2-0.1-0.3-0.2-0.7-0.6c1.8-0.5,3.6-0.6,5-0.2c6.1,1.7,12.3,3.3,17.5,7.1c4.7,3.4,8.9,7.4,12.3,12.2  c0.3,0.4,0.5,0.9,1,0.7c0.6-0.2,1.1-0.6,1.2-1.2c0.3-1.3-0.3-2.3-1.2-3.2c-4.3-4.5-8.7-8.9-12.9-13.4c-3.6-3.8-6.5-8.2-7.6-13.4  c-1.9-9,2.1-15,11.4-16.7c1.8-0.3,3.6-0.9,5.4-1.2c2.6-0.5,5.1-0.1,7.4,0.9c2.4,1,2.9,4.7,1.1,6.8c-1.7,2-4,2.8-6.5,2.9  c-2.6,0.1-5.3,0-7.9,0c-2.6,0-3.8,1.1-4,3.7c-0.6,5.9,1.6,10.7,6.2,14.3c2.2,1.6,3.6,3.9,5.7,5.6c1.7,1.3,3.3,2.9,4.9,4.3  c3.3,3,3.9,6.2,2.9,10.2c-0.3,1-0.5,2-0.8,3c-0.7,2.4-0.3,3.7,2,4.7c2.2,0.9,4.4,1.7,6.7,2.2c3.2,0.7,6,2.1,8.7,3.7  c1.2,0.7,1.9,1.7,1.9,3c0,1.3-0.8,2.2-1.9,2.8c-0.7,0.4-1.5,0.7-2.2,1.1c-1.8,0.9-3,0.4-3.7-1.4c-2.3-5.4-6.1-8.3-12.2-8.2  c-3.9,0.1-5.3,3.1-7.7,5.2c-0.1,0.1-0.1,0.3-0.2,0.4c-1.7,1.8-3.5,3.4-2.3,6.4c0.9,2.3,1.1,4.8,3,6.6c1.3,1.2,1.1,2.8,1.1,4.4  c0,0.9-0.1,1.8,0,2.7c0.1,0.8-0.5,1.9,0.4,2.2c1.1,0.4,1.9-0.8,2.2-1.5c1.4-2.9,2.9-5.9,3.1-9.2c0.3-4.1,3.6-7,7.7-6.3  c0.9,0.1,2.2-1.3,2.6,0.5c0.4,1.9-1.6,1.3-2.3,2.1c-0.6,0.7-2.2,0.9-1.9,1.9c0.3,1,1.7,0.4,2.6,0.4c2.5,0.2,4.8-0.6,7.2-1.3  c4.1-1.3,8.3-2.3,12.2-4.1c8-3.7,17,0.7,19.1,9.2c0.9,3.5-0.4,6.8-3.2,8.9c-0.8,0.6-1.7,0.5-2.6,0.3c-0.9-0.2-0.7-1.2-0.8-1.9  c-1.1-4.7-2.8-9-7.1-11.6c-3.8-2.3-7.2-0.2-7.3,4.2c-0.1,2.9-1.1,5.7-2.2,8.3c-1.3,2.9-1.2,4.6,1.5,6.2c2.2,1.3,2.5,3.3,3.1,5.6  c-1.6-0.4-2.8-1.1-3.3-2.2c-0.7-1.4-2.1-1.6-3.1-2.4c-0.5-0.5-1-0.3-1.4,0.4c-0.9,1.7-1.3,3.5-1.6,5.3c-0.3,1.8,1.5,3,3.3,2.3  c2.5-1,3.3-0.4,3.5,2.3c0.1,2.7-1.1,5.2-0.9,8c0,0.8-0.2,1.7,1.2,2.3c0.2-3.4,2.4-5.8,3.7-8.6c0.6-1.2,1.2-2.3,2.7-2.3  c1.6,0,3.1,0.7,4,2.1c1,1.6,1.4,3.4,0.7,5.3c-1.3,3.3-2.9,6.3-4.8,9.3c-3.1,5-8.8,5-13.8,1.7c-5.7-3.8-10-9-14.9-13.6  c-0.5-0.5-0.9-1-1.5-1.4c-0.9-0.6-2-1.1-2.9-0.4c-0.9,0.7-0.5,1.7-0.2,2.7c2,5.8,5.4,10.6,10.1,14.7c3.4,2.9,6.6,6,10.4,8.5  c0.9,0.6,1.9,1.1,2.9,1.6c3.1,1.7,3.8,6.7,1.2,9.1c-0.8,0.8-1.8,0.9-2.9,0.2c-1-0.6-1.5-0.4-1.9,0.8c-0.8,2.5,0.3,6.4,2.4,7.8  c1.8,1.2,2.8-0.1,3.5-1.5c1.6-2.8,2.5-5.9,3.1-9c0.6-3.1,1.6-5.2,4.8-6.8c6.7-3.3,10.4-9.2,11.9-16.6c0.7-3.5,0.4-6.8-0.5-10.1  c-0.3-1.4-1.1-2.3-2.5-2.5c-1.9-0.3-3.2-1.6-4.7-2.7c2.8-1.1,5.9-0.2,7.6,2.4c0.8,1.3,2.3,2,3.1,3.4c1.7,3.1,1.9,6.4,0.9,9.7  c-2.8,9.3-5.1,18.7-6.3,28.3c-0.4,3.1-0.1,6.4-1.6,9.4c-1,1.8-2,3.6-3,5.4c-0.7,1.3-1.3,1.1-2.2,0.4c-4.6-3.6-5.8-3.9-11.7-3  c0.1,0.8,0.8,0.8,1.3,1c5.1,2,8.4,5.8,10.8,10.6c0.3,0.6,0.6,1.2,1.1,1.7c0.6,0.6,1.4,0.9,1.7-0.4c0.1-0.5-0.2-1.3,0.7-1.4  c0.9-0.1,1.5,0.4,1.8,1c0.6,1.1,0.9,2.9,2.2,2.6c1.4-0.3,0.8-2.4,1-3.6c0.9-4.8,1.2-9.7,2.3-14.5c1.6-7.2,5.6-11.6,12.8-13  c3.2-0.6,6,0.8,8.5,2.5c1.2,0.8,1,2.5,0.7,3.8c-0.4,1.4-1.4,2.4-2.8,2.5c-1.8,0.2-3.7,0.7-5.5,0.5c-1.9-0.2-3.1,0.4-3.4,2.6  c-0.7,5-2.2,9.9-2.3,14.9c-0.1,3.9-0.1,7.9,0.7,11.8c1,4.8-1.6,10.6-5.8,13.1c-2.8,1.7-8.2,1.1-10.8-1c-2.6-2.1-4.2-4.6-5.8-7.6  c-2.4-4.7-4.3-9.7-7.8-13.8c-0.4-0.5-0.5-1.1-1.3-0.8c-2.4,0.8-4.8,1.5-7.2,2.3c-3.9,1.3-5.3,4.3-5.9,8.1  c-2.5,14.8,1,27.9,10.3,39.6c0.4,0.5,0.9,0.8,1.3,1.3c1,1.3,1.1,2.6-0.5,3.5c-1.5,0.9-3,1.7-4.4,2.6c-1.5,0.9-2.4,0.5-3.6-0.8  c-2.3-2.7-4.4-5.6-7-8.2c-3-3-9.4-3.7-13.3-1.6c-2.1,1.2-2.5,5.5-0.6,7.6c2.4,2.6,5.4,3.8,8.9,3.1c3.7-0.8,7,0.1,10.3,1.7  c0.9,0.5,1.1,0.9,0.2,1.5c-4.9,3.4-10.2,6-16,7.6c-1.7,0.5-3.5,0.1-5.1-0.5c-12-4.8-16.1-19.1-7.1-29c1.7-1.9,3.9-3.2,5.4-5.3  c0.9-1.4,0.5-2.1-0.8-2.5c-0.8-0.3-1.7-0.4-2.6-0.6c-1.6-0.3-3.2-1.5-2.3-3.1c2.3-4,2.1-8.6,3.3-12.8c0.2-0.7,0.4-1.4,0.5-2.1  c0.5-2.2,1.6-4.4,0.6-6.9c-0.4-1-0.5-2.5,0.5-3.8c1.7,2.5,2.8,5.1,2.6,8.1c-0.1,0.9,0,1.8,0,2.7c0,0.6,0,1.3,0.7,1.6  c0.8,0.4,1.3-0.2,1.7-0.7c2.3-2.6,3.4-5.7,3.9-9c0.3-1.9,0.7-3.8,0.5-5.8c-0.1-0.6,0.2-1,0.6-1.4c1.3-1.4,1.6-3,0.6-4.8  c-1.6,1-1.7,2.9-2.5,4.3c-0.5,0.8-0.7,2-2,1.7c-1.1-0.2-1.4-1-1.6-2.1c-0.5-3-0.7-5.9,0-8.9c0.1-0.6,0.2-1.4-0.5-1.8  c-0.7-0.5-1.2,0-1.8,0.4c-1.4,1.1-2.6,1-3.7-0.5c-3.1-4.3-6.9-8.1-9-13.2c-0.8-1.9-2.7-3.3-4.5-4.6c-0.8-0.5-1.8-0.7-2,0.3  c-0.5,2.1-1.9,1.9-3.4,2c-1,0-2.6-0.7-2.9,0.9c-0.3,1.5,0.5,2.7,2.1,3.2c0.6,0.2,1.2,0.6,1.1,1.2c0,0.8-0.7,1.1-1.3,1.3  c-2.1,0.7-4.5,0.7-7,1.9c3.4,0,6.4,0,9.5,0c0.4,0,1-0.2,1.2,0.3c0.2,0.5-0.2,1.1-0.6,1.3c-0.7,0.4-1.5,1-2.2,1  c-4.5-0.2-9,1.3-13.6,0.1c-7.2-1.9-12.8-6.9-12.7-15c0-2.8,0.9-5,3.8-6.1c5.7-2.2,11.3-4.7,17.6-5.1c4.6-0.3,8.9,0.4,13.2,2.1  c2.3,0.9,4.7,1.1,7.2,1.2c1.8,0,2.6-0.9,2.8-2.7c0.2-2-0.2-3.9-0.6-5.8c-0.5-2.9-0.4-5.8-0.3-8.7c0-3.5-1.3-6.2-4.6-7.3  c-4-1.3-6.6-4.5-9.8-6.8c-2-1.4-3.8-3-5.9-4.3c-2.4-1.4-4.2-3.5-4.8-6.4c-0.2-1-0.6-1.5-1.6-0.8c-2.6,1.9-5.6,2.4-8.9,2.4  c-4.7-0.1-9.3-0.1-13.9-1.6c-2.8-0.9-6.1-0.4-9.2-0.1c-5.8,0.5-11.6,1-17.4,0.7c-2-0.1-3.8-1.1-5.3-2.6c-1.9-1.9-2.4-1.8-3,0.8  c-0.7,3-3.3,4.3-5.5,5.8c-3.5,2.5-7.2,4.6-10.9,6.9c-2.6,1.6-5.3,0.5-8,0c-3.8-0.8-7,0.5-9.7,3c-0.9,0.8-1.7,1.7-2.6,2.5  c-0.3,0.3-0.6,0.7-0.1,1.1c0.3,0.3,0.5,0.6,1.1,0.2c1-0.7,2.2-1.2,3.3-1.8c3.2-2,5.6-1.8,9.2,0.9c1.8,1.4,2.2,3.8,1.2,7  c-0.3,0.9-0.6,1.8-1.1,2.7c-1.2,2-0.2,3.6,1,5c0.8,0.9,2,1,2.6-0.2c1.8-3.8,4.6-7.2,3.9-11.8c-0.2-1,0-2-0.9-2.9  c-1.1-1.1-0.5-2.3,0.7-2.7c5.5-1.9,9.9-5.5,14.6-8.7c0.6-0.4,1.2-0.9,1.7-1.5c1.1-1.2,2.6-1.7,3.9-1.2c4.7,1.8,9.6,1.7,14.5,1.7  c1.3,0,2,0.7,2,1.9c-0.2,6.4,0.7,12.9-0.9,19.2c-0.6,2.7-1.8,5.2-3.5,7.1c-1.7,1.8-4.5,2.1-7,2.4c-5.7,0.6-11,2.4-16.3,5.8  c3.4,0.2,6-0.9,8.6-1.5c7.1-1.5,14-1.6,20.6,1.6c0.6,0.3,1.3,0.3,1.9,0.5c5.8,1.6,9.2,6,9.2,12c0,7.4,0.2,14.7-0.1,22.1  c-0.1,3.5,0.3,6.6,3,9.1c2,1.8,2,4.2,1.4,6.5c-0.5,1.6-0.5,3.1,0.6,4.4c0.6,0.7,0.5,1.5,0.3,2.3c-0.2,0.7-0.5,1.4-0.6,2.1  c-0.1,1-0.3,2.1-0.1,3.1c0.3,1.5,1.7,0.6,2.6,0.8c3.9,1,7.2,2.9,9.7,6.2c0.4,0.6,0.9,1.3,1.7,1.4c0.7,0.1,0.8,0.5,0.8,1.1  c0,0.7-0.4,1.1-1.1,1.2c-0.5,0-1,0-1.6,0c-6.8,0-13.5-0.1-20.3,0.1c-2.6,0.1-5.2,0.1-7.7,0.8c-0.5,0.1-1.1-0.1-1.2,0.7  c-0.1,0.8,0.3,1.2,0.8,1.8c2,2,4.7,2.2,7.2,2.5c4.3,0.6,8.7,1.2,13.1,1c1.1,0,2.2-0.3,3.3-0.4c0.9-0.1,1.9,0.1,2.1,1.1  c0.3,0.9-0.1,1.7-1.1,2.1c-3.4,1.5-6.6,3.4-10.4,4.2c-3,0.6-6.6,1.6-7.9,5.4c-1,3,0.1,5.7,2.6,7.6c3.2,2.5,6.5,2.1,10.1,1  c10.4-3.2,19.6-8.6,28.1-15.5c3.1-2.5,6.1-5.1,8.2-8.6c0.4-0.7,1.1-1,1.8-1.3c0.7-0.3,1.7-1.1,2.2-0.3c0.3,0.5-0.2,2-0.8,2.4  c-2.7,1.8-3.8,4.9-6,7.1c-5.7,5.9-11.3,12-18.2,16.5c-3.3,2.2-6.6,4.5-10.3,6.1c-3,1.3-6.2,2.1-9.5,1.9c-3.4-0.1-6.7,0.2-10.1-0.2  c-4.1-0.5-7.3-3-10.8-4.9c-7.4-4.1-13.7-9.7-19.6-15.7c-3.1-3.1-5.8-6.6-8.1-10.3c-2.1-3.3-3.2-3.4-6.7-1.5c-3.6,2-5.7,5.2-7.4,8.6  c-2.1,4.1-4,8.3-7.3,11.6c-4.8,4.8-8.5,5.3-14.3,1.9c-2.3-1.4-4.4-3-6.6-4.6c-0.4-0.3-0.7-0.6-0.6-1.1c0.1-0.6,0.6-0.5,1.1-0.6  c1.9-0.2,3.7-0.4,5.7-0.1c3.7,0.5,6.9-1,9.9-3.3c5-3.9,6.6-9.2,6.8-15.2c0.2-7.3-1.9-14.2-4.1-21.1c-1.8-5.6-3.1-11.5-5.1-17  c-2.4-6.7-3-13.4-3-20.4c0-0.7-0.1-1.5-0.9-1.5c-0.7,0-0.8,0.8-0.9,1.5c-1.1,8.5-0.1,16.9,1.5,25.3c1,5,3,9.7,3.5,14.8  c0.1,0.9,0.6,1.7,0.9,2.5c3.2,6.7,4.1,13.6,2.1,20.7c-0.6,2-1.8,3.9-2.8,5.8c-1,1.8-3,2-4.7,2.8c-3,1.5-5.9,1.8-9.1,1.1  c1-1.4,2.5-2.1,3.9-2.2c2.1-0.1,3.5-1.5,5.1-2.4c0.8-0.4,1.2-1.2,1.2-2c0-1-1.1-0.5-1.6-0.8c-5.9-2.6-11.2-5.5-13.8-12.2  c-2.6-6.8-1.9-13.2-0.4-19.8c1.1-4.9,3.6-9.2,6.3-13.4c2.5-3.8,2.6-7.8,2.1-12c-0.1-0.7-0.1-1.5-0.2-2.2c-0.2-0.8,0.9-1.8-0.2-2.2  c-0.8-0.3-1.5,0.6-2,1.1c-3.7,3.6-8.3,5.4-13,6.8c-7.4,2.3-14.1,0.4-20.3-4.2c-7-5.2-7.7-12.6-7.2-20.4c0.1-1.4,0.9-2.5,2.1-3.3  c4-2.9,8.4-3.8,12.2,0.2c1,1.1,2.1,2.1,3.5,2.7c1.8,0.8,3.1,0,4.3-0.9c1-0.8,1-2.1,0.6-3.5c-1.1-3.9-3.1-6.7-6.7-9.1  c-6.6-4.4-8.5-13-5.7-20.3c2.1-5.3,5.8-9.4,8.7-14.2c1.6-2.7,7.2-4.3,10.1-3.4c1.3,0.4,2.1,1.1,1.2,2.6c-1,1.7-2.2,2.9-3.7,4.2  c-4.6,3.9-7.7,8.7-6.7,15.3c0.6,3.7,2.3,6.6,4.8,9.3c1.5,1.6,3.7,2.4,5.4,3.2c3,1.4,6.4,2.8,10,2.7c1.2-0.1,2.3-0.2,2.8-1.4  c0.7-1.4,1-3.1-0.4-4.1c-4.3-3.5-5.9-8.6-8.1-13.4c-0.4-0.8-0.8-1.7-0.8-2.5c0-4.7-0.9-9.6,0.7-14.2c0.5-1.3,0.8-2.5,2.5-2.7  c1.7-0.2,2.5,0.7,3.3,2c1.7,2.7,3.7,5.3,5.6,7.8c0.4,0.6,0.9,1.2,1.9,0.6c0.9-0.5,1.3-1.1,1.1-2c-0.3-1.1-0.6-2.5-1.3-3.2  c-3.4-3.6-5.9-7.9-9.7-11.1c-2.2-1.8-4.8-3-7.6-3.2c-2.2-0.2-4.4,0.1-6.5-0.1c-2.4-0.1-4.7,0-6.6,1.9c-1.5,1.5-3.7,1.6-5.6,1.7  c-2.5,0.1-5.1,0.5-7.6-0.4c-0.6-0.2-1.7-0.4-1.4-1.1c0.6-1.5,0.1-3.2,1-4.5c0.7-1.1,2-1.3,3.1-1.5c1.5-0.2,3.1-0.1,4.8-0.1  c-0.7,1.5-1.8,1.2-2.8,1.3c-1.7,0.2-2,0.9-1,2.3c1.9,2.6,6.5,2.6,8.2,0c1.2-1.7,2.5-3,4.7-2.8c0.1,0,0.3,0,0.4,0  c5.2-3,9.8,0.6,14.3,2c3.9,1.2,7.1,4.5,9.8,7.9c1.1,1.4,2.1,2.8,3.5,4c1.7,1.4,3.3,1.5,4.8,0.2c3.1-2.6,6.5-4.9,8.2-8.8  c-1-0.6-1.4,0.3-1.9,0.7c-2.7,2-4.1,1.3-6.7-0.6c-4.5-3.4-7.9-8.7-14.3-9.2c-4.1-0.3-8.1-0.4-12.2,0.1c-4.3,0.6-8.7,1.4-12.9-0.7  c-1.3-0.6-2.1-1.3-1.8-2.9c0.3-1.6,1.6-2.1,3-2.1c1.4-0.1,2.8,0.4,4.1,1c4.7,2.3,9.5,2.3,14.1-0.2c3.6-2,7.4-2.9,11.4-3.1  c3.7-0.2,6.8,1.4,9.7,3.4c1.4,1,2.7,0.9,4.1,0.2c1.1-0.5,1.1-1.3,0.7-2.2c-1.6-3.4-1.5-4.3,1.2-7c2.5-2.5,5-5,7.5-7.5  c0.4-0.4,0.9-0.8,1.3-1.3c2.6-3.3,6.3-3,8.4,0.6c1.2,2,1.2,4.2,1.7,6.4c0.3,1.3,0.3,2.9,1.8,3.3c2,0.4,3.5-0.9,5-2  c1.3-1,1.1-2.4,0.6-3.7c-0.8-2.2-2.1-4.1-3.6-5.9c-1.4-1.7-3.3-2-5.5-1.8c-0.5,0-1.2,0.3-1.3-0.4c-0.2-0.6,0.6-0.7,0.9-1.1  c1.5-1.3,3.4-1.2,4.8-0.4c2.8,1.5,5.7,2.9,7.2,6c0.6,1.3,1.3,1.9,2.8,0.5c2.8-2.5,5.4-4.9,5.2-9c-0.1-1.2-0.4-2.3-1.1-3.1  c-3.7-5-7.9-9.1-14.7-9.3c-1.8,0-3.3,0.7-4.5,1.7c-3.5,2.8-9.9,1.2-12.6-0.6c-1.3-0.8-1.2-1.9-0.1-3c3.1-3,6.9-4.9,11.1-5.2  c4.7-0.3,9.6-0.6,14.3,0.3c3.9,0.8,7.4,2.6,10.4,5.3c1.8,1.6,3.4,3.4,5.1,5.1c2.5,2.5,5.8,1.7,6.4-1.7c1-5,2-10,1.9-15.2  c0-2.5-1.3-4.2-3.1-5.6c-1.6-1.2-4,0-4.6,2.2c-0.4,1.6-0.7,3.2-1.4,4.7c-0.6,1.5-1.6,2.2-3.3,2.2c-1.6,0-2.5-1.1-2.9-2.4  c-0.5-1.6-1.3-2.7-2.4-3.9c-2.1-2.1-2-3.4-0.6-5.9c1.1-2,1.8-4.3,3.6-6C224.2,119.9,229.4,119.9,233.2,123z"></path>	<path class="st0" d="M235.6,494.2c-7.2,0-14.3-1.2-21.5-2.2c-9.9-1.3-19.7-3.2-29.3-5.9c-10.5-2.9-20.8-6.3-30.8-10.6  c-6-2.7-12.1-5.4-18-8.2c-2.5-1.2-2.7-2.9-1.6-5c6-11.2,12.6-22,18.5-33.3c5-9.5,10.4-18.9,15.6-28.2c2.5-4.4,4.8-8.8,7.1-13.4  c0.5-1,0.3-1.7-0.5-2.3c-1.1-1-2.4-1.8-3.8-2.3c-1.9-0.8-3,0.6-3.8,1.9c-1.9,2.9-3.7,5.9-5.6,8.8c-3.7,5.7-7,11.8-11.2,17.1  c-4.4,5.6-7.9,11.8-11.8,17.7c-4.7,7.2-9.2,14.5-13.9,21.7c-1.2,1.9-2.8,3.6-3.8,5.8c-0.5,1.1-1.6,1.4-2.8,0.7  c-8.4-5.3-16.6-10.8-24.2-17.3c-6.9-5.8-14.3-11-20.3-17.8c-6.5-7.5-13.8-14.3-19.6-22.6c-3.7-5.3-7.6-10.6-11.7-15.7  c-1.8-2.3-1.5-3.6,1-5c6.5-3.6,12.6-7.8,19-11.6c3.1-1.9,6.1-3.8,9.3-5.5c3.3-1.8,6.1-4.4,9.6-6c4.4-2.1,8.1-5.5,12.4-7.8  c1.4-0.7,2.7-1.6,4-2.4c6.3-3.3,12-7.6,18.2-11.2c2.6-1.5,3.9-1.3,5.6,1.2c2.1,3.1,4,6.3,6.3,9.2c1.9,2.4,3.9,4.8,6.1,7  c5.4,5.4,10.6,11,16.4,16.1c2.1,1.8,2,2.7,0,4.8c-6.2,6.7-11.7,14-17.6,21c-4.3,5.1-8.9,10.1-13.3,15.1c-2.1,2.3-4.1,4.9-5.9,7.6  c-2,3-3.3,3.2-6.1,1c-4.9-3.9-9.5-8.1-13.8-12.7c-2.9-3.1-5.6-6.4-8.9-9.1c-0.9-0.7-1.6-1.6-2.4-2.4c-2.2-2.3-2.2-3.9,0.5-5.6  c3.6-2.3,6.4-5.5,9.8-8.1c5.4-4.2,10.9-8.2,16-12.7c1.2-1.1,2.6-1.1,3.6,0.6c0.8,1.4,2,2.4,3.3,3.3c2.3,1.6,2.6,3.7,0.9,5.9  c-3.8,4.8-8.2,9.1-12.9,12.9c-2.2,1.8-2.4,2.7-0.5,4.6c1.3,1.3,2.7,2.6,4,4c1.1,1.2,1.8,1.1,2.9,0c4.6-4.7,9.4-9.3,14-14.1  c2.7-2.8,5.9-5,8.7-7.7c2.6-2.4,2.8-3.9,0.3-6.4c-2.2-2.2-4.3-4.5-6.7-6.6c-3.7-3.3-6.1-7.7-9.4-11.4c-2.6-3-3.8-2.6-5.9-1.1  c-7.5,5.2-14.7,10.9-22.5,15.8c-7.9,4.9-15.1,10.8-22.7,16.2c-4.5,3.2-4.7,4.2-1.3,8.6c2.3,3,4.8,5.9,7.3,8.7  c2.9,3.1,5.5,6.5,8.3,9.6c3.6,4.1,7.6,7.7,11.7,11.3c3.8,3.2,7.6,6.5,11.4,9.6c2.8,2.3,5.7,4.5,8.6,6.7c1.6,1.1,3.4,1,4.5-0.6  c5.6-7.9,11.4-15.7,17.3-23.4c1.9-2.6,2.5-5.8,4.5-8.4c7.3-9.6,14.5-19.3,21.7-29c2.2-3,4.3-6,6.7-8.9c1.3-1.6,2.8-2,4.6-0.8  c6.1,4.1,12.5,7.7,19.1,11c2.1,1.1,2.7,3.3,1.6,5.6c-2.6,5.8-5.2,11.5-7.9,17.2c-6.6,14.3-13.2,28.6-19.8,42.8  c-2.3,5-4.5,10-6.8,15c-1.2,2.6-0.9,3.8,1.6,4.8c13.5,5.5,27.3,10.1,41.6,13.2c7,1.5,14.2,2.2,21.1,3.9c3.8,0.9,5.5-0.7,5.8-4.8  c0.5-6.3,1.3-12.7,2.1-19c0.7-4.8,1-9.6,1.4-14.4c0.6-6.1,1.1-12.1,1.8-18.2c0.5-4.5-0.9-6.3-5.4-6.7c-5.3-0.5-10.5-1.7-15.7-2.8  c-1.8-0.4-3.6-0.8-5.4-1.1c-2.9-0.5-4.2,0.4-5,3.3c-0.8,2.9-1.5,5.9-2.4,8.8c-1.8,5.6-3.6,11.3-5.5,16.9c-1.5,4.5-0.4,6.4,4.3,7.2  c0.5,0.1,1,0.2,1.5,0.3c3.1,0.8,4.3,0.2,4.7-3c0.7-5.1,2.7-9.8,3.5-14.9c0.1-0.4,0.2-0.9,0.2-1.3c0.3-4,2-5.4,5.8-4.5  c2,0.5,4,1.2,5.9,2c2.1,0.9,2.7,2.5,2.4,5.1c-0.9,6.8-2.7,13.5-3.3,20.4c-0.4,3.8-1.1,7.6-1.8,11.4c-0.3,2-4.2,4-6.7,2.9  c-5.6-2.4-11.7-2.5-17.4-4.4c-5-1.6-10.2-2.4-14.8-5.1c-0.5-0.3-1-0.3-1.5-0.4c-3-0.5-3.8-1.8-2.8-4.7c1.2-3.5,2.2-7.1,3.9-10.4  c3.2-6.3,4.6-13.3,7.4-19.7c1.6-3.6,2.9-7.3,4.9-10.7c1.6-2.7,1.4-6.2,2.7-9.1c1-2.1,1.7-4.3,2.6-6.4c1-2.1,2.5-2.9,4.5-1.9  c8.2,3.8,17.2,4.7,25.8,7.1c3.6,1,7.3,0.5,10.8,1.3c2.5,0.6,5.1,0.3,7.6,0.5c2.2,0.1,3.3,1.8,3.1,3.6c-0.5,4.6,0.1,9.3-0.7,13.8  c-0.1,0.4-0.1,0.7-0.1,1.1c0.3,5.4-0.2,10.8-0.6,16.1c-0.5,8.2,0.1,16.3-0.4,24.5c-0.7,10-0.9,20-0.9,30c0,2.1-1.1,3-3.2,3.1  C239.1,494.3,237.3,494.2,235.6,494.2z"></path>	<path class="st0" d="M9.8,258.6c7-0.7,14.1-0.2,21.1-0.5c7.2-0.3,14.5-0.5,21.7-1c4.6-0.3,9.1,0.1,13.7-0.4  c5.8-0.6,11.7-0.1,17.5-0.5c2.8-0.2,5.7-0.3,8.5-0.4c2.3-0.1,3.8-1.5,3.6-3.9c-0.2-3.6-1.6-4.6-3.6-4.7c-6.5-0.2-13-0.6-19.5-0.4  c-7.3,0.1-14.5-0.2-21.8-0.6c-11.3-0.6-22.6-0.6-33.9-0.9c-3.7-0.1-7.4-0.2-11-1.1c-2.2-0.5-3.1-1.7-3-4c0.2-5,0.8-9.9,1.3-14.9  c0.6-5.4,1.5-10.7,2.3-16c1.2-7.3,3-14.5,4.9-21.6c2.7-9.9,6-19.7,10-29.2c2.9-6.8,5.6-13.6,9.8-19.7c1.6-2.3,2.1-2.2,4.3-0.8  c2.3,1.5,4.8,2.6,7.3,3.7c5,2.2,9.9,4.7,14.6,7.6c7.3,4.5,15.3,7.7,22.7,11.8c6.7,3.7,13.7,6.8,20.2,10.7c3.4,2,6.5,4.4,10.1,6.3  c2.7,1.4,2.8,2.5,1.9,5.6c-1.2,3.9-3.2,7.5-4.8,11.2c-3.6,8.6-6.3,17.5-8.3,26.7c-1,4.7-3.4,6-7.9,4.5c-4.1-1.3-8.4-1.5-12.7-2.2  c-4.3-0.7-8.6-1.3-12.9-2c-5.3-0.8-10.7-1.7-16-2.6c-4.5-0.7-9-1.5-13.6-2.3c-1.9-0.3-2.9-1.3-2.7-3.4c0.5-4.5,1.8-8.8,2.8-13.2  c1.5-6.6,3.3-13,5.7-19.3c0.3-0.8,0.6-1.5,0.9-2.3c1.4-2.9,2.5-3.2,5.5-2.1c7,2.7,14.1,5.4,21.1,8.1c2.7,1,5.4,1.9,8.2,2.9  c2.5,0.9,3.3,2.3,2.4,4.8c-0.1,0.4-0.4,0.8-0.6,1.2c-2.4,6-3.1,6.3-9.1,4.4c-5.1-1.6-10.2-3.1-15.3-4.7c-1.7-0.5-2.9,0-3.4,1.5  c-1,2.7-1.9,5.5-2.5,8.3c-0.4,2,1.2,2.6,2.8,3c4.3,1,8.5,1.9,12.7,2.9c6.3,1.5,12.7,2.9,19,4.4c2.6,0.6,3.2,0.3,4-2.3  c1.1-3.4,2.1-6.8,3.1-10.2c1.5-4.9,3.3-9.7,5.5-14.3c1.1-2.2,0.6-3.3-1.7-4.2c-5.4-2.3-10.7-4.9-16.1-7.4  c-4.7-2.2-9.8-3.9-14.5-6.1c-4.2-1.9-8.5-3.8-12.8-5.7c-3-1.4-6.1-2.8-9.1-4.1c-3.2-1.4-4.7-0.8-6.3,2.3c-2.5,4.7-4.3,9.8-6.2,14.7  c-3.9,10.4-6.6,21.2-8.8,32c-1.2,5.8-2,11.7-2.9,17.5c-0.4,2.7,0.6,3.7,3.5,3.9c7.7,0.7,15.4,1.5,23,2.2c5.7,0.5,11.4,0.9,17.1,1.4  c5.2,0.5,10.3,1.2,15.5,1.7c3.9,0.4,7.9,0.6,11.8,1c4.6,0.4,9.2,0.8,13.7,1.4c2.2,0.3,3.4,1.5,3.2,4c-0.4,5.9,0.6,11.8,0.5,17.7  c0,1.6,0.5,3.2,0.9,4.8c0.5,1.6,0.1,2.4-1.6,2.8c-2.5,0.7-5,0.4-7.5,0.7c-6.3,0.8-12.6,0.9-18.9,1.5c-7,0.6-14,1.5-21,2.2  c-6.6,0.7-13.3,1.1-20,1.9c-5.3,0.6-10.7,0.7-16,1.3c-1.8,0.2-2.9,1.3-2.9,3.3c0,5,1.1,9.9,1.9,14.8c1.8,10.6,4.8,20.9,8.1,31.1  c2,6.2,4.3,12.3,7.1,18.2c1,2.1,2.5,2.5,4.4,1.8c2.8-1.1,5.4-2.4,8.1-3.6c10-4.6,20.1-9.1,30.3-13.4c4.8-2,9.5-4.3,14.2-6.4  c1.7-0.8,2.4-1.8,1.6-3.7c-3.1-7.7-5.9-15.5-8-23.5c-0.5-2.1-2.5-2.9-4.9-2.3c-9.4,2.4-18.8,4.7-28.2,6.7c-3.7,0.8-4.4,2.2-3.2,5.9  c0.3,0.9,0.6,1.8,1,2.7c1.3,3,2,3.2,5.2,2.2c5.4-1.7,10.9-3.4,16.3-5.1c3.4-1.1,4.9-0.3,6.1,3.1c0.7,1.9,1.1,3.8,1.7,5.7  c0.7,2.1-0.1,3.1-1.9,3.8c-4.1,1.6-8.2,3.3-12.4,4.8c-6,2.2-12.1,4.4-18.1,6.6c-4.2,1.6-6.4,0.6-7.7-3.7c-2.7-9-5.4-18-7.5-27.1  c-0.4-1.5-0.8-3-1.1-4.5c-0.8-4.2,0.5-6,4.7-6.7c10-1.5,20-3,30-4.6c9.4-1.5,18.8-3.2,28.2-4.9c1.9-0.3,3.6,0.9,4.1,3.1  c1.1,4.9,2.2,9.8,3.6,14.6c2.6,8.8,5.7,17.3,10.3,25.3c0.5,0.8,1,1.6,1,2.7c0.1,1.7-0.3,2.6-2,3.5c-14,7.4-28,14.9-42,22.3  c-8.9,4.7-17.8,9.3-26.6,14c-2.5,1.3-5,2.7-7.5,3.9c-2.8,1.4-4.9,0.7-6.3-2c-8.1-15.8-14.6-32.2-19.2-49.4  C8.5,304,6.6,294.1,5.3,284c-0.9-6.7-1.8-13.4-2.1-20.1c-0.2-4.4,0.8-5.3,5.3-5.3C8.9,258.6,9.4,258.6,9.8,258.6z"></path>	<path class="st0" d="M486.2,245.1c-5.2-0.3-11.1,0.3-17,0.6c-5.4,0.3-10.8,0.2-16.1,0.3c-9,0.2-18.1,0.7-27.1,1  c-5.2,0.2-10.3,0.2-15.5,0.3c-1.8,0-3.5,0.5-4.1,2.1c-0.7,1.7-0.7,3.7,0.3,5.3c0.6,1,1.9,1.2,3,1.2c5.5-0.2,11.1,0.4,16.6,0.6  c9.4,0.2,18.8,0.6,28.2,0.9c3.7,0.1,7.5,0,11.2,0.4c6.3,0.7,12.6,0,18.8,0.5c3.2,0.2,6.4,0.3,9.6,0.3c2.6,0.1,3.9,1.3,3.9,4  c0.1,6.3-0.4,12.6-1.3,18.9c-1.1,8.4-2.7,16.8-4.5,25.1c-3.2,14.1-7.7,27.8-13.6,41c-2.5,5.6-5.1,11.1-8.2,16.3  c-1.2,2-3,2.7-4.9,1.5c-6.7-4.1-13.9-7-20.7-10.8c-5.3-2.9-10.7-5.8-16.1-8.6c-11.5-6-22.9-11.9-34.4-17.9  c-1.7-0.9-3.4-1.8-5.1-2.8c-2.1-1.2-2.8-2.5-1.8-4.7c2.7-6.3,5.6-12.4,8-18.8c2.7-7.2,4.7-14.5,5.8-22.1c0.5-3.1,1.9-4.5,5-4  c7.6,1.2,15.1,2.6,22.7,3.9c6,1,12,1.9,18,2.9c6,1,12.1,1.9,18.1,3.1c3.6,0.7,4.5,2.1,3.7,5.7c-2.5,11.8-5.6,23.5-9.9,34.7  c-0.7,1.8-2.1,2.3-3.8,1.8c-8.2-2.4-16.3-5.3-24.1-8.9c-2.5-1.2-5.3-1.5-7.8-2.5c-3-1.2-3.9-2.8-2.9-5.8c0.6-1.8,1.3-3.6,2.1-5.4  c0.9-2,2.4-2.8,4.7-2.1c5.7,1.7,11.4,3.3,17,5.1c1,0.3,2.1,0.5,3.1,0.3c1.5-0.2,2.7-1.2,2.7-2.8c0-6.5,1.3-6.9-5.9-8.7  c-8.9-2.2-17.9-3.9-26.7-6.4c-1.6-0.5-2.5,0.7-2.9,2.1c-1.7,5.1-3.2,10.3-5,15.4c-1,2.9-2.2,5.7-3.5,8.4c-0.8,1.8-0.3,2.8,1.4,3.5  c5.7,2.6,11.3,5.3,17,7.8c6.8,3,13.5,6,20.4,8.8c4.7,1.9,9,4.8,13.9,6.4c3.9,1.3,5.1,0.9,6.8-3c2.1-4.9,4.1-9.8,5.9-14.9  c4.7-13.4,7.6-27.2,10.3-41.1c0.5-2.4,0.4-5,0.9-7.5c0.3-1.7-1.4-2.2-2.7-2.3c-3.4-0.2-6.7,0-10.1-0.4c-5.1-0.7-10.3-1.2-15.5-1.8  c-2.4-0.3-4.9-0.2-7.4-0.4c-6.9-0.7-13.9-1.4-20.8-2.3c-5.2-0.6-10.5-0.9-15.8-1.4c-3.9-0.4-7.8-1-11.8-0.9c-1.4,0-1.5-0.8-1.6-1.9  c-0.2-2.8,0.1-5.5,0.6-8.2c0.5-3.4,0.2-6.9,0.4-10.3c0.1-2.3,0-4.5,0-6.8c0-1.9,0.9-2.8,2.8-3c7.2-0.6,14.4-1.1,21.5-1.8  c6.2-0.7,12.4-1.2,18.6-1.8c6.9-0.6,13.9-1.5,20.8-2.2c5.8-0.6,11.5-1,17.3-1.4c3.6-0.2,4.6-1.4,4.1-5c-0.8-7.1-2.2-14-3.7-21  c-2.4-11.2-5.5-22.3-9.9-32.9c-1.4-3.4-2.3-7-4-10.3c-1.2-2.3-2.9-3-5.2-2c-6.6,2.9-12.9,6.3-19.5,9c-5.1,2.1-10.2,4.4-15.3,6.7  c-5.7,2.5-11.2,5.5-17.2,7.3c-3.8,1.2-4.7,3.5-2.8,7.1c3.4,6.4,5.4,13.3,7.2,20.2c0.3,1.1,0.6,2.1,1.1,3.1c0.7,1.7,2,2.2,3.8,1.7  c10.4-2.8,21-5.1,31.5-7.5c3.5-0.8,3.9-1.5,2.6-4.9c-0.4-1.2-0.8-2.4-1.1-3.6c-1.2-4.8-2.5-5.1-6.8-3.6c-5.4,1.9-10.9,3.6-16.5,5.1  c-2.7,0.7-3.5,0.3-4.4-2.3c-0.5-1.5-1-2.9-1.5-4.4c-0.8-2.5-0.1-3.8,2.5-4.8c7.2-2.7,14.6-5,21.5-8.3c3.2-1.5,6.4-3.2,9.8-4.4  c2.1-0.7,3.2-0.1,3.8,1.7c4.2,11.3,7.5,22.8,9.4,34.6c0.7,4.7,1.1,5.4-4.4,6.6c-4.2,0.9-8.4,1.6-12.7,1.8c-2.3,0.1-4.5,0.7-6.7,1.3  c-2.8,0.8-5.5-0.2-8.3,0.4c-7.7,1.5-15.4,2.7-23.2,4c-2.3,0.4-4.5,0.8-6.8,1c-2.1,0.2-3.5-0.9-3.8-3.2c-2-12.2-6.1-23.7-11.2-35  c-0.8-1.7-1.4-3.3-2.6-4.8c-1.3-1.6-0.6-3.2,1.6-4.5c10.1-6,20.6-11.2,31.1-16.5c6.1-3.1,11.9-6.7,18-9.5c3.4-1.6,5.7-4.3,8.9-5.9  c4.5-2.4,9.1-4.7,13.6-7c1.6-0.8,3-1.9,4.7-2.4c1.9-0.6,3.2-0.1,4.2,1.5c2.7,4.1,4.4,8.6,6.4,13c4.2,8.9,7.7,18.1,10.7,27.5  c3,9.5,5.3,19.2,7.2,29c2,10.4,3.5,21,3.2,31.6c-0.1,3.6-1.1,4.7-4.6,4.7C491.3,245.1,489.1,245.1,486.2,245.1z"></path>	<path class="st0" d="M257.1,471c0-4.1,0.2-8.1,0-12.2c-0.4-9.1-0.6-18.2-1-27.3c-0.2-4.1,0-8.2-0.4-12.3c-0.5-4.7-0.4-9.4-0.4-14.1  c0-2.5,0.6-3.1,3.2-3.2c8.4-0.1,16.7-1.5,24.9-3.2c3.3-0.7,6.7-1.3,9.9-2.4c3-1,6-1.9,9-3c2.3-0.9,3.3-0.7,4.3,1.6  c2.7,6.6,5.2,13.2,7.8,19.8c4.6,11.7,9.1,23.5,13.7,35.2c1.5,3.8,0.7,5.2-3.3,6.5c-7.7,2.6-15.5,4.8-23.4,6.8  c-3.9,1-8,1.4-11.9,2.5c-1.9,0.5-3.4-0.2-3.9-2.3c-0.8-4.1-1.7-8.1-2.3-12.2c-1-6.6-2-13.2-3.4-19.7c-0.9-4.1-0.1-5.7,4-6.6  c1.4-0.3,2.9-0.5,4.4-0.6c3.2-0.2,4,0.4,5.1,3.5c1.9,5.5,2.7,11.4,4.3,17c0.6,2.2,2.1,3.3,4.3,2.9c0.8-0.1,1.6-0.3,2.4-0.6  c5-2.3,5.4-1.1,3.5-7c-2.8-8.6-5.3-17.3-7.9-25.9c-1.1-3.5-1.6-3.8-5.1-3c-5.8,1.3-11.5,2.7-17.3,4c-1.4,0.3-3,0.1-4.5,0.1  c-3.8,0-5.5,1.9-4.5,5.5c1.3,4.7,1.2,9.6,1.7,14.3c0.5,5.1,1.2,10.2,1.7,15.2c0.4,3.6,0.7,7.2,1,10.9c0.3,4.7,0.6,9.4,0.9,14  c0.2,2.5,1.8,3.5,4.6,3c11.6-1.9,23.2-3.6,34.6-6.8c9.1-2.6,18.1-5.7,26.9-9.1c0.3-0.1,0.6-0.2,0.8-0.3c4.5-1.6,5-3,3-7.3  c-5.4-11.3-10.7-22.6-16-33.9c-4.7-9.9-9.3-19.9-13.9-29.9c-1.6-3.4-3.1-6.8-4.6-10.1c-1.3-2.8-0.4-4.8,2.8-5.7  c5.9-1.5,11-4.7,16-8c4.6-3,4.6-3.1,8,1.2c4.8,6.1,8.8,12.6,13.5,18.7c5.9,7.8,11.8,15.6,17.5,23.5c6,8.3,12.2,16.4,18.2,24.7  c1.2,1.6,2.3,1.7,3.9,0.6c4.6-3,8.6-6.9,12.9-10.2c8.5-6.5,15.8-14.2,23.1-21.9c4.3-4.6,8.6-9.4,12.2-14.7c2.1-3.1,1.7-4.3-1.1-6.7  c-7.5-6.4-16.1-11.3-24.1-17.1c-5.3-3.9-10.6-7.8-16-11.6c-2.3-1.6-4.8-3-7-4.7c-1.1-0.9-2.3-0.9-3.3,0.3c-1.7,2-3.3,4-4.9,6  c-0.2,0.2-0.3,0.5-0.5,0.7c-3.6,3-6,7-9.3,10.2c-0.8,0.8-1.8,1.6-2.7,2.4c-2.4,2.2-2.6,3.8-0.4,6c4.2,4.1,8.2,8.3,12.5,12.4  c2.3,2.2,4.2,4.8,6.6,7c1.3,1.2,1.9,3.1,3.6,4.1c1.1,0.7,1.9,1,3.2,0.1c2.6-1.9,5.1-3.9,6.7-6.8c0.6-1.1,0.6-1.9-0.3-2.7  c-3.9-3.4-7.6-6.8-11.4-10.3c-1.5-1.4-2.9-3-4.7-4.1c-0.9-0.6-0.8-2.1,0-3c1.7-2,3.5-3.9,5.3-5.8c1.1-1.1,2.2-1.1,3.3,0  c5.8,5.1,12.1,9.6,17.8,14.9c2.6,2.4,5.7,4.4,8.5,6.8c1.6,1.3,1.4,2.5,0.4,3.8c-1.9,2.3-3.7,4.6-5.9,6.7  c-6.3,6.2-12,12.9-19.5,17.8c-0.2,0.1-0.3,0.3-0.5,0.5c-3.1,2.7-3.2,2.7-5.9-0.4c-6.5-7.4-12.2-15.4-18.8-22.6  c-4.4-4.7-8.3-9.9-12.2-15c-1.7-2.3-4.2-3.9-5.8-6.4c-1.9-3.1-1.9-3,0.6-5.5c3.4-3.3,7.3-6.1,10.6-9.6c3.8-4,7-8.5,10.6-12.7  c2.9-3.3,5.4-6.9,7.8-10.5c1.1-1.7,2.7-0.9,3.9-0.2c3.7,2.1,7.2,4.7,10.9,6.9c11,6.2,21.5,13.1,32.2,19.8  c7.1,4.5,14.7,8.3,21.6,13.2c2.8,2,6.2,3.1,8.8,5.5c1.5,1.4,1.8,2.5,0.6,4.2c-0.4,0.5-0.8,1.1-1,1.7c-1.4,5.3-4.9,9.3-8.2,13.3  c-3.7,4.5-7.4,9.1-11.2,13.6c-3.8,4.4-7.5,8.9-12.1,12.5c-1.3,1.1-2.5,2.4-3.7,3.6c-2.9,3-6.2,5.4-9.7,7.7  c-5.5,3.6-10.4,8-15.8,11.9c-4.4,3.2-8.9,6.1-13.5,9c-1.7,1.1-3.3,0.4-4.2-1.2c-3-5.4-6.7-10.3-9.6-15.8c-2-3.6-4.8-6.7-7-10.2  c-8.2-13.1-16.5-26.2-24.8-39.3c-1.1-1.8-2.2-3.5-3.1-5.4c-1.5-2.8-3.6-3.3-6.7-1.7c-3.1,1.6-4,3.7-2.5,6.5c3.3,6,6.3,12.4,10.2,18  c6.2,8.7,10.5,18.4,15.8,27.6c5.2,8.9,9.9,18.1,14.7,27.2c1.4,2.7,1.1,4.2-1.5,5.8c-5.8,3.5-12.1,6.1-18.3,8.6  c-12.7,5.2-25.7,9.3-39.1,12.4c-7.1,1.6-14.1,3.1-21.3,4c-6.3,0.7-12.5,1.5-18.8,1.9c-2,0.1-4,0.3-6,0.4c-2,0.1-2.8-1-3.1-2.7  c-0.7-4.3-1-8.6-0.9-12.9C257.2,476.4,257.1,473.7,257.1,471z"></path>	<path class="st0" d="M299.4,149c2.1-0.2,3.4,0.8,4.4,2.1c1.2,1.6,2.8,2.8,4.4,4c4.5,3.3,8.3,7.5,12.9,10.6c3.5,2.4,5.1,5.8,5.7,9.9  c0.3,1.7,0.7,3.7,1.8,4.7c1.5,1.3,3.3,2.8,5.5,3.1c2.1,0.3,3-1.4,4-2.8c4.5-6.7,6.3-13.7,2.8-21.5c-0.6-1.5-1.7-2-2.8-2.2  c-5-1-7.4-4.8-10-8.5c-1-1.5-0.7-3,1.2-3.8c6.1-2.5,13.7-0.5,17,7.1c2.2,5.1,3.5,10.6,5.3,15.9c1.2,3.5-0.5,6.7-1.1,10  c-0.8,4.1-2.3,8-4.5,11.5c-1,1.5-0.1,3.1,1.7,3.1c5.5,0.3,9.7,3.2,13.5,6.8c1.1,1.1,1.5,2.5,1.6,4.1c0,0.4,0.2,1-0.4,1.2  c-0.5,0.2-0.9-0.3-1.1-0.6c-1.6-2.8-4.3-4.3-6.7-6.3c-2.3-1.9-5-2.1-7.7-2.3c-3.4-0.3-5.8-1.7-8.2-4.2c-2.8-2.8-6.5-4.8-10-7  c-1-0.6-1.9-1.3-3.1-1.7c-0.9-0.3-1.1-1.2-1.2-2.2c-0.6-5.5-2.5-10.5-6.8-14c-3.2-2.6-6.5-5.1-9.8-7.5  C304.4,156,302.5,152,299.4,149z"></path>	<path class="st0" d="M143.2,336c-8.4-4.1-11.9-10.9-8-20.3c1.5-3.6,2.5-7.4,5.5-10.4c1.1-1.1,1.5-3,2.1-4.6  c0.9-2.3,2.2-4.3,3.6-6.3c1.3-1.9,4.4-2.2,7.7-1.1c2.2,0.8,2.7,2.4,2.7,4.6c0,2.1,0,4.1-1.4,5.9c-0.8,1.1-0.4,2.5-0.4,3.7  c-0.2,3.3-1.4,4.5-4.6,4.2c-2.2-0.2-2.9,0.9-3.5,2.5c-1.9,4.8-2.8,9.9-3.5,15C143,331.4,143.2,333.6,143.2,336z"></path>	<path class="st0" d="M333.2,336.1c-0.9,0.1-1.5-0.2-1.8-1.4c-2.1-6.4-2.9-12.9-1.1-19.4c0.9-3.4,3.4-6,5.5-8.8  c0.5-0.7,2.1-1.4,2.7-0.7c0.8,1,0.1,2.3-0.8,3.1c-1.8,1.6-3,3.6-3.8,5.8c-0.9,2.3,0.2,4,1.6,5.6c2.9,3.5,3.7,7.4,2.4,11.7  C336.9,334.7,335.2,336.1,333.2,336.1z"></path>	<path class="st0" d="M337.9,341.4c-0.6-0.9-2.2-0.7-1.7-1.9c0.3-0.8,1.5-0.8,2.4-0.7c4.2,0.5,7.9,2.3,11.6,4.2  c2.1,1.1,1.9,1.8,0.1,3.4c-1.2,1.1-2.3,2.3-3.5,3.5c-1.7,1.6-3.7,1.6-5.4,0c-1.7-1.7-3.4-3.6-5-5.4  C335.2,343,335.8,341.8,337.9,341.4z"></path>	<path class="st0" d="M353.6,230c-1.1-0.5-2.6-0.1-3.9-1c-1.6-1.1-2.1-2.4-1.1-3.9c1.1-1.6,2.3-1.6,3.7-0.4c2.3,1.9,4.8,1.3,7.3,0.6  c0.5-0.1,1-0.4,1.5-0.5c0.6-0.1,1.3-0.1,1.6,0.5c0.4,0.8-0.3,1.1-0.7,1.5C359.7,228.9,356.9,229.9,353.6,230z"></path>	<path class="st0" d="M259.1,308.2c2.6,0,4.8,1.6,4.6,3.4c-0.2,1.8-1.3,2.5-3.1,2.4c-2.7-0.1-4.4-1.5-4.4-3.7  C256.2,308.2,257.6,308.1,259.1,308.2z"></path></g><path class="st0" d="M197.3,220.4h0.3v22.2h-0.3V220.4 M197.2,220.3v22.5h0.6v-22.5H197.2L197.2,220.3z"></path></svg>